<mxfile host="drawio-plugin" modified="2024-01-24T04:15:49.061Z" agent="5.0 (Windows NT 10.0; Win64; x64) AppleWebKit/537.36 (KHTML, like Gecko) Chrome/111.0.0.0 Safari/537.36" etag="Bbkd68JKLqf4GE-O_p9g" version="20.5.3" type="embed" pages="2"><diagram name="old" id="FeFfB-irpCghS5sKbSKz"><mxGraphModel dx="656" dy="565" grid="1" gridSize="10" guides="1" tooltips="1" connect="1" arrows="1" fold="1" page="1" pageScale="1" pageWidth="827" pageHeight="1169" math="0" shadow="0"><root><mxCell id="0"/><mxCell id="1" parent="0"/><mxCell id="1fX_Cav-7heVwrDH0wH6-4" style="edgeStyle=orthogonalEdgeStyle;rounded=0;orthogonalLoop=1;jettySize=auto;html=1;exitX=0.5;exitY=1;exitDx=0;exitDy=0;" parent="1" source="1fX_Cav-7heVwrDH0wH6-1" target="1fX_Cav-7heVwrDH0wH6-2" edge="1"><mxGeometry relative="1" as="geometry"/></mxCell><mxCell id="1fX_Cav-7heVwrDH0wH6-1" value="提示用戶操作系統eq&lt;br&gt;輸入可調範圍&lt;br&gt;比較default跟全頻段最大增益&lt;br&gt;取得eq與音響間的靈敏度與頻寬" style="rounded=1;whiteSpace=wrap;html=1;" parent="1" vertex="1"><mxGeometry x="210" y="130" width="200" height="60" as="geometry"/></mxCell><mxCell id="1fX_Cav-7heVwrDH0wH6-5" style="edgeStyle=orthogonalEdgeStyle;rounded=0;orthogonalLoop=1;jettySize=auto;html=1;exitX=0.5;exitY=1;exitDx=0;exitDy=0;" parent="1" source="1fX_Cav-7heVwrDH0wH6-2" target="1fX_Cav-7heVwrDH0wH6-3" edge="1"><mxGeometry relative="1" as="geometry"/></mxCell><mxCell id="1fX_Cav-7heVwrDH0wH6-2" value="在eq為default下撥放不同增益的目標噪音&lt;br&gt;獲得線性區間的增益靈敏度" style="rounded=1;whiteSpace=wrap;html=1;" parent="1" vertex="1"><mxGeometry x="200" y="230" width="220" height="60" as="geometry"/></mxCell><mxCell id="1fX_Cav-7heVwrDH0wH6-3" value="以eq與音響間的增益與程式與音響間的增益獲得eq與程式間的增益" style="rounded=1;whiteSpace=wrap;html=1;" parent="1" vertex="1"><mxGeometry x="210" y="330" width="200" height="60" as="geometry"/></mxCell><mxCell id="1fX_Cav-7heVwrDH0wH6-6" value="" style="endArrow=classic;html=1;rounded=0;exitX=0.5;exitY=1;exitDx=0;exitDy=0;entryX=0.5;entryY=0;entryDx=0;entryDy=0;" parent="1" source="1fX_Cav-7heVwrDH0wH6-3" target="1fX_Cav-7heVwrDH0wH6-7" edge="1"><mxGeometry width="50" height="50" relative="1" as="geometry"><mxPoint x="560" y="290" as="sourcePoint"/><mxPoint x="310" y="430" as="targetPoint"/></mxGeometry></mxCell><mxCell id="1fX_Cav-7heVwrDH0wH6-7" value="比較關鍵頻率增益&lt;br&gt;疊加目標噪音&lt;br&gt;生成新噪音" style="rounded=1;whiteSpace=wrap;html=1;" parent="1" vertex="1"><mxGeometry x="250" y="460" width="120" height="60" as="geometry"/></mxCell><mxCell id="1fX_Cav-7heVwrDH0wH6-8" value="調整eq使目標噪音為白噪音" style="text;html=1;align=center;verticalAlign=middle;resizable=0;points=[];autosize=1;strokeColor=none;fillColor=none;" parent="1" vertex="1"><mxGeometry x="50" y="470" width="170" height="30" as="geometry"/></mxCell><mxCell id="1fX_Cav-7heVwrDH0wH6-9" value="" style="endArrow=classic;html=1;rounded=0;exitX=0.5;exitY=1;exitDx=0;exitDy=0;entryX=1;entryY=0.5;entryDx=0;entryDy=0;" parent="1" source="1fX_Cav-7heVwrDH0wH6-7" target="1fX_Cav-7heVwrDH0wH6-7" edge="1"><mxGeometry width="50" height="50" relative="1" as="geometry"><mxPoint x="500" y="620" as="sourcePoint"/><mxPoint x="410" y="440" as="targetPoint"/><Array as="points"><mxPoint x="310" y="560"/><mxPoint x="390" y="560"/><mxPoint x="390" y="490"/></Array></mxGeometry></mxCell><mxCell id="1fX_Cav-7heVwrDH0wH6-10" value="few times" style="text;html=1;align=center;verticalAlign=middle;resizable=0;points=[];autosize=1;strokeColor=none;fillColor=none;" parent="1" vertex="1"><mxGeometry x="315" y="538" width="70" height="30" as="geometry"/></mxCell><mxCell id="1fX_Cav-7heVwrDH0wH6-11" value="" style="endArrow=classic;html=1;rounded=0;" parent="1" edge="1"><mxGeometry width="50" height="50" relative="1" as="geometry"><mxPoint x="310" y="560" as="sourcePoint"/><mxPoint x="310" y="610" as="targetPoint"/></mxGeometry></mxCell><mxCell id="1fX_Cav-7heVwrDH0wH6-12" value="比較關鍵頻率增益&lt;br&gt;疊加目標噪音&lt;br&gt;生誠心噪音" style="rounded=1;whiteSpace=wrap;html=1;" parent="1" vertex="1"><mxGeometry x="250" y="610" width="120" height="60" as="geometry"/></mxCell></root></mxGraphModel></diagram><diagram id="fF2CckXJ2oExVW7HKu6v" name="20240122"><mxGraphModel dx="656" dy="565" grid="1" gridSize="10" guides="1" tooltips="1" connect="1" arrows="1" fold="1" page="1" pageScale="1" pageWidth="850" pageHeight="1100" math="0" shadow="0"><root><mxCell id="0"/><mxCell id="1" parent="0"/><mxCell id="0tB81Q2iXu15iNBwT-gu-1" style="edgeStyle=orthogonalEdgeStyle;rounded=0;orthogonalLoop=1;jettySize=auto;html=1;exitX=0.5;exitY=1;exitDx=0;exitDy=0;" parent="1" source="0tB81Q2iXu15iNBwT-gu-2" target="0tB81Q2iXu15iNBwT-gu-4" edge="1"><mxGeometry relative="1" as="geometry"/></mxCell><mxCell id="0tB81Q2iXu15iNBwT-gu-2" value="提示用戶操作系統eq&lt;br&gt;輸入可調範圍&lt;br&gt;比較default跟全頻段最大增益&lt;br&gt;取得eq與音響間的靈敏度與頻寬" style="rounded=1;whiteSpace=wrap;html=1;" parent="1" vertex="1"><mxGeometry x="270" y="10" width="200" height="60" as="geometry"/></mxCell><mxCell id="0tB81Q2iXu15iNBwT-gu-3" style="edgeStyle=orthogonalEdgeStyle;rounded=0;orthogonalLoop=1;jettySize=auto;html=1;exitX=0.5;exitY=1;exitDx=0;exitDy=0;" parent="1" source="0tB81Q2iXu15iNBwT-gu-4" target="0tB81Q2iXu15iNBwT-gu-5" edge="1"><mxGeometry relative="1" as="geometry"/></mxCell><mxCell id="0tB81Q2iXu15iNBwT-gu-4" value="" style="rounded=1;whiteSpace=wrap;html=1;" parent="1" vertex="1"><mxGeometry x="260" y="110" width="220" height="60" as="geometry"/></mxCell><mxCell id="0tB81Q2iXu15iNBwT-gu-5" value="以eq與音響間的增益與程式與音響間的增益獲得eq與程式間的增益" style="rounded=1;whiteSpace=wrap;html=1;" parent="1" vertex="1"><mxGeometry x="270" y="210" width="200" height="60" as="geometry"/></mxCell><mxCell id="0tB81Q2iXu15iNBwT-gu-6" value="" style="endArrow=classic;html=1;rounded=0;exitX=0.5;exitY=1;exitDx=0;exitDy=0;entryX=0.5;entryY=0;entryDx=0;entryDy=0;" parent="1" source="0tB81Q2iXu15iNBwT-gu-5" target="0tB81Q2iXu15iNBwT-gu-7" edge="1"><mxGeometry width="50" height="50" relative="1" as="geometry"><mxPoint x="620" y="170" as="sourcePoint"/><mxPoint x="370" y="310" as="targetPoint"/></mxGeometry></mxCell><mxCell id="0tB81Q2iXu15iNBwT-gu-7" value="比較關鍵頻率增益&lt;br&gt;疊加目標噪音&lt;br&gt;生成新噪音" style="rounded=1;whiteSpace=wrap;html=1;" parent="1" vertex="1"><mxGeometry x="310" y="340" width="120" height="60" as="geometry"/></mxCell><mxCell id="0tB81Q2iXu15iNBwT-gu-8" value="調整eq使目標噪音為白噪音" style="text;html=1;align=center;verticalAlign=middle;resizable=0;points=[];autosize=1;strokeColor=none;fillColor=none;" parent="1" vertex="1"><mxGeometry x="110" y="350" width="170" height="30" as="geometry"/></mxCell><mxCell id="0tB81Q2iXu15iNBwT-gu-9" value="" style="endArrow=classic;html=1;rounded=0;exitX=0.5;exitY=1;exitDx=0;exitDy=0;entryX=1;entryY=0.5;entryDx=0;entryDy=0;" parent="1" source="0tB81Q2iXu15iNBwT-gu-7" target="0tB81Q2iXu15iNBwT-gu-7" edge="1"><mxGeometry width="50" height="50" relative="1" as="geometry"><mxPoint x="560" y="500" as="sourcePoint"/><mxPoint x="470" y="320" as="targetPoint"/><Array as="points"><mxPoint x="370" y="440"/><mxPoint x="450" y="440"/><mxPoint x="450" y="370"/></Array></mxGeometry></mxCell><mxCell id="0tB81Q2iXu15iNBwT-gu-10" value="few times" style="text;html=1;align=center;verticalAlign=middle;resizable=0;points=[];autosize=1;strokeColor=none;fillColor=none;" parent="1" vertex="1"><mxGeometry x="375" y="418" width="70" height="30" as="geometry"/></mxCell><mxCell id="0tB81Q2iXu15iNBwT-gu-11" value="" style="endArrow=classic;html=1;rounded=0;" parent="1" edge="1"><mxGeometry width="50" height="50" relative="1" as="geometry"><mxPoint x="370" y="440" as="sourcePoint"/><mxPoint x="370" y="490" as="targetPoint"/></mxGeometry></mxCell><mxCell id="0tB81Q2iXu15iNBwT-gu-12" value="比較關鍵頻率增益&lt;br&gt;疊加目標噪音&lt;br&gt;生誠心噪音" style="rounded=1;whiteSpace=wrap;html=1;" parent="1" vertex="1"><mxGeometry x="310" y="490" width="120" height="60" as="geometry"/></mxCell></root></mxGraphModel></diagram></mxfile>